<?xml version="1.0" encoding="UTF-8" standalone="no"?>
<svg width="80px" height="70px" viewBox="0 0 80 70" version="1.1" xmlns="http://www.w3.org/2000/svg" xmlns:xlink="http://www.w3.org/1999/xlink" xmlns:sketch="http://www.bohemiancoding.com/sketch/ns">
    <!-- Generator: Sketch 3.0 (7574) - http://www.bohemiancoding.com/sketch -->
    <title>Shape</title>
    <description>Created with Sketch.</description>
    <defs></defs>
    <g id="Page-1" stroke="none" stroke-width="1" fill="none" fill-rule="evenodd" sketch:type="MSPage">
        <g id="Article" sketch:type="MSLayerGroup" transform="translate(-1175.000000, -362.000000)" fill="#171515">
            <g id="Author" sketch:type="MSShapeGroup">
                <g transform="translate(930.000000, 139.000000)">
                    <path d="M285,282.991501 C283.503594,282.991501 282.007187,282.216814 280.457656,280.667282 C279.8475,280.057126 279.8475,279.067751 280.457656,278.457439 C281.067813,277.847439 282.057187,277.847439 282.6675,278.457439 C283.621094,279.411345 284.384063,279.874939 285,279.874939 C285.615781,279.874939 286.378906,279.411345 287.332656,278.457595 C287.942969,277.847595 288.932031,277.847595 289.5425,278.457595 C290.152656,279.067751 290.152656,280.057126 289.5425,280.667439 C287.992813,282.216814 286.496406,282.991501 285,282.991501 L285,282.991501 Z M245,259.054001 C245,262.951814 245.333281,266.485407 246,269.654157 C246.666719,272.822907 247.604219,275.571345 248.8125,277.898845 C250.020781,280.226345 251.548594,282.266345 253.395781,284.019157 C255.242969,285.77197 257.249844,287.216032 259.416562,288.351814 C261.583281,289.487439 264.062344,290.406189 266.854062,291.10697 C269.645625,291.808064 272.485937,292.298845 275.374844,292.579314 C278.26375,292.859782 281.444375,292.999939 284.916562,292.999939 C288.38875,292.999939 291.576094,292.860095 294.478906,292.579626 C297.381719,292.299157 300.229062,291.808376 303.020469,291.107282 C305.812187,290.406189 308.298437,289.487751 310.478906,288.352126 C312.659375,287.216345 314.680313,285.77197 316.54125,284.01947 C318.4025,282.266657 319.937344,280.226657 321.145469,277.899157 C322.354062,275.571501 323.298594,272.823064 323.979062,269.65447 C324.659531,266.48572 324.999844,262.952282 324.999844,259.05447 C324.999844,252.071657 322.832969,246.056657 318.499844,241.009001 C318.749844,240.335876 318.965,239.564782 319.145625,238.695407 C319.325938,237.826032 319.499687,236.599157 319.66625,235.014782 C319.833281,233.430251 319.770625,231.600407 319.478906,229.525407 C319.187187,227.450095 318.63875,225.332907 317.833125,223.173689 L317.208125,223.047282 C316.791562,222.96322 316.111094,222.991189 315.166562,223.131657 C314.222344,223.271814 313.117969,223.524001 311.854219,223.888689 C310.590469,224.253064 308.958438,224.975251 306.958281,226.054939 C304.958438,227.13447 302.847344,228.501657 300.625,230.156189 C296.847188,229.006345 291.639063,227.803376 285,227.803376 C278.36125,227.803376 273.138906,229.006189 269.333594,230.156032 C267.11125,228.501345 264.993281,227.141345 262.979375,226.07572 C260.965312,225.009939 259.354219,224.280876 258.145938,223.888376 C256.9375,223.495876 255.819531,223.243376 254.791719,223.131345 C253.763906,223.019157 253.104062,222.984001 252.8125,223.026189 C252.520938,223.06822 252.305625,223.117282 252.166719,223.173376 C251.360938,225.332751 250.805469,227.449939 250.499844,229.525251 C250.194375,231.600251 250.124844,233.423064 250.291562,234.993376 C250.458281,236.563845 250.63875,237.797907 250.833281,238.695095 C251.027813,239.592439 251.25,240.363689 251.5,241.008689 C247.166719,246.02822 245,252.04322 245,259.054001 L245,259.054001 Z M255.666875,267.953376 C255.666875,263.420407 257.333438,259.309782 260.666875,255.620876 C261.666875,254.495407 262.826719,253.643376 264.146094,253.065251 C265.465625,252.48697 266.965469,252.158532 268.646094,252.080407 C270.326719,252.002282 271.930781,252.017907 273.458594,252.127282 C274.986406,252.236814 276.875313,252.385251 279.125313,252.572751 C281.375156,252.760564 283.319687,252.854157 284.958594,252.854157 C286.597344,252.854157 288.542031,252.760407 290.791719,252.572751 C293.042188,252.385251 294.930938,252.236814 296.458594,252.127282 C297.986719,252.017907 299.590625,252.002282 301.27125,252.080407 C302.951875,252.158689 304.458906,252.48697 305.792188,253.065251 C307.125469,253.643376 308.292188,254.495407 309.292188,255.620876 C312.625313,259.309782 314.292188,263.420407 314.292188,267.953376 C314.292188,270.610564 314.014531,272.978689 313.45875,275.057595 C312.903281,277.136657 312.201719,278.879157 311.354531,280.285876 C310.507344,281.692751 309.319531,282.881032 307.792188,283.849939 C306.264219,284.819157 304.785,285.56947 303.354688,286.10072 C301.924062,286.63197 300.076719,287.046345 297.812969,287.343376 C295.54875,287.639939 293.52125,287.820095 291.729219,287.882439 C289.9375,287.944939 287.680781,287.976189 284.958594,287.976189 C282.236406,287.976189 279.986406,287.944782 278.208594,287.882439 C276.430781,287.820095 274.41,287.639939 272.146094,287.343376 C269.882187,287.046345 268.035,286.632126 266.604375,286.10072 C265.173906,285.569314 263.694687,284.819157 262.166875,283.849939 C260.639063,282.880876 259.451563,281.692751 258.604375,280.285876 C257.757031,278.879157 257.055625,277.136657 256.500156,275.057595 C255.944688,272.978689 255.666875,270.610564 255.666875,267.953376 L255.666875,267.953376 Z M265,265.500251 C265,269.642387 267.238576,273.000251 270,273.000251 C272.761424,273.000251 275,269.642387 275,265.500251 C275,262.820759 274.047005,260.344807 272.5,259.005061 C270.952995,257.665315 269.047005,257.665315 267.5,259.005061 C265.952995,260.344807 265,262.820759 265,265.500251 L265,265.500251 Z M295,265.500251 C295,269.642387 297.238576,273.000251 300,273.000251 C302.761424,273.000251 305,269.642387 305,265.500251 C305,261.358116 302.761424,258.000251 300,258.000251 C297.238576,258.000251 295,261.358116 295,265.500251 L295,265.500251 Z" id="Shape"></path>
                </g>
            </g>
        </g>
    </g>
</svg>