<?xml version="1.0" encoding="UTF-8" standalone="no"?>
<svg width="89px" height="70px" viewBox="0 0 89 70" version="1.1" xmlns="http://www.w3.org/2000/svg" xmlns:xlink="http://www.w3.org/1999/xlink" xmlns:sketch="http://www.bohemiancoding.com/sketch/ns">
    <!-- Generator: Sketch 3.0 (7574) - http://www.bohemiancoding.com/sketch -->
    <title>Shape</title>
    <description>Created with Sketch.</description>
    <defs></defs>
    <g id="Page-1" stroke="none" stroke-width="1" fill="none" fill-rule="evenodd" sketch:type="MSPage">
        <g id="Article" sketch:type="MSLayerGroup" transform="translate(-1294.000000, -15.000000)" fill="#55ACEE">
            <g id="Group" sketch:type="MSShapeGroup">
                <g transform="translate(930.000000, 15.000000)">
                    <path d="M453.000348,8.28810096 C449.725773,9.69382212 446.206797,10.6440385 442.513297,11.071274 C446.282934,8.88377404 449.178389,5.41995192 450.541723,1.29230769 C447.013359,3.31810096 443.105703,4.78894231 438.946518,5.58149038 C435.615971,2.14627404 430.870289,-7.10542736e-15 425.618594,-7.10542736e-15 C415.53465,-7.10542736e-15 407.358992,7.91353365 407.358992,17.6748317 C407.358992,19.0601923 407.520479,20.4092067 407.831805,21.7030288 C392.656609,20.9656731 379.202139,13.9289904 370.196451,3.23497596 C368.624697,5.84550481 367.724094,8.88175481 367.724094,12.1211058 C367.724094,18.2535096 370.947563,23.6637019 375.847082,26.8333894 C372.853936,26.7415144 370.038441,25.9464423 367.576861,24.6225 C367.575123,24.6962019 367.575123,24.7702404 367.575123,24.8447837 C367.575123,33.4086779 373.869266,40.5523798 382.222055,42.1765144 C380.690107,42.5803606 379.076809,42.7967548 377.411535,42.7967548 C376.234893,42.7967548 375.091104,42.6856971 373.975996,42.479399 C376.29973,49.501274 383.042871,54.6121154 391.033055,54.7543029 C384.783934,59.4952885 376.910736,62.3208654 368.355785,62.3208654 C366.881896,62.3208654 365.42852,62.2372356 364,62.0735096 C372.080574,67.088774 381.678494,70.0153125 391.989979,70.0153125 C425.575484,70.0153125 443.941643,43.0818029 443.941643,19.724351 C443.941643,18.9580529 443.923738,18.1957933 443.888625,17.4375721 C447.456969,14.9455048 450.5525,11.832524 453.000348,8.28810096 L453.000348,8.28810096 Z" id="Shape"></path>
                </g>
            </g>
        </g>
    </g>
</svg>