<svg xmlns="http://www.w3.org/2000/svg" xmlns:xlink="http://www.w3.org/1999/xlink" width="89" height="140" viewBox="0 0 89 140"><svg xmlns="http://www.w3.org/2000/svg" xmlns:sketch="http://www.bohemiancoding.com/sketch/ns" width="80" height="70" viewBox="0 0 80 70" y="0" id="git"><title>Shape</title><path d="M40 59.992c-1.496 0-2.993-.775-4.542-2.324-.61-.61-.61-1.6 0-2.21.61-.61 1.6-.61 2.21 0 .954.954 1.717 1.417 2.332 1.417.616 0 1.379-.464 2.333-1.417.61-.61 1.599-.61 2.21 0 .61.61.61 1.6 0 2.21-1.55 1.549-3.046 2.324-4.543 2.324zm-40-23.938c0 3.898.333 7.431 1 10.6.667 3.169 1.604 5.917 2.813 8.245 1.208 2.327 2.736 4.368 4.583 6.12 1.847 1.753 3.854 3.197 6.021 4.333 2.167 1.136 4.646 2.054 7.438 2.755 2.792.701 5.632 1.192 8.521 1.472 2.889.28 6.07.421 9.542.421 3.472 0 6.66-.14 9.562-.42 2.903-.28 5.75-.771 8.542-1.472s5.278-1.62 7.458-2.755c2.18-1.136 4.201-2.58 6.062-4.333 1.861-1.753 3.396-3.793 4.604-6.12 1.209-2.328 2.153-5.076 2.834-8.245.68-3.169 1.021-6.702 1.021-10.6 0-6.983-2.167-12.998-6.5-18.045.25-.673.465-1.444.646-2.314.18-.869.354-2.096.521-3.681.167-1.585.104-3.414-.187-5.489-.292-2.075-.84-4.192-1.646-6.352l-.625-.126c-.417-.084-1.097-.056-2.042.084-.944.14-2.049.392-3.312.757-1.264.364-2.896 1.087-4.896 2.166-2 1.08-4.111 2.447-6.333 4.101-3.778-1.15-8.986-2.353-15.625-2.353-6.639 0-11.861 1.203-15.666 2.353-2.222-1.655-4.34-3.015-6.354-4.08-2.014-1.066-3.625-1.795-4.833-2.187-1.208-.392-2.326-.645-3.354-.757-1.028-.112-1.688-.147-1.979-.105-.292.042-.507.091-.646.147-.806 2.159-1.361 4.277-1.667 6.352-.305 2.075-.375 3.898-.208 5.468.167 1.57.347 2.805.542 3.702.195.897.417 1.669.667 2.314-4.333 5.02-6.5 11.035-6.5 18.045zm10.667 8.899c0-4.533 1.667-8.644 5-12.332 1-1.125 2.16-1.978 3.479-2.556 1.32-.578 2.819-.907 4.5-.985 1.681-.078 3.285-.063 4.813.047 1.528.11 3.417.258 5.667.445 2.25.188 4.194.281 5.833.281 1.639 0 3.583-.094 5.833-.281 2.25-.188 4.139-.336 5.667-.445 1.528-.109 3.132-.125 4.813-.047 1.681.078 3.188.407 4.521.985 1.333.578 2.5 1.43 3.5 2.556 3.333 3.689 5 7.8 5 12.332 0 2.657-.278 5.025-.833 7.104-.555 2.079-1.257 3.822-2.104 5.228-.847 1.407-2.035 2.595-3.562 3.564-1.528.969-3.007 1.72-4.438 2.251-1.431.531-3.278.946-5.542 1.243-2.264.297-4.292.477-6.084.539-1.792.063-4.048.094-6.771.094-2.722 0-4.972-.031-6.75-.094-1.778-.062-3.799-.242-6.063-.539-2.264-.297-4.111-.711-5.542-1.243-1.43-.531-2.91-1.282-4.438-2.251-1.528-.969-2.715-2.157-3.563-3.564-.847-1.407-1.549-3.149-2.104-5.228-.555-2.079-.833-4.447-.833-7.104zm9.333-2.453c0 4.142 2.239 7.5 5 7.5s5-3.358 5-7.5c0-2.679-.953-5.155-2.5-6.495-1.547-1.34-3.453-1.34-5 0-1.547 1.34-2.5 3.816-2.5 6.495zm30 0c0 4.142 2.239 7.5 5 7.5s5-3.358 5-7.5c0-4.142-2.239-7.5-5-7.5s-5 3.358-5 7.5z" sketch:type="MSShapeGroup" fill="#171515"/></svg>
<svg xmlns="http://www.w3.org/2000/svg" xmlns:sketch="http://www.bohemiancoding.com/sketch/ns" width="89" height="70" viewBox="0 0 89 70" y="70" id="twitter"><title>Shape</title><path d="M89 8.288c-3.275 1.406-6.794 2.356-10.487 2.783 3.77-2.187 6.665-5.651 8.028-9.779-3.528 2.026-7.436 3.497-11.595 4.289-3.331-3.435-8.076-5.581-13.328-5.581-10.084 0-18.26 7.914-18.26 17.675 0 1.385.161 2.734.473 4.028-15.175-.737-28.63-7.774-37.635-18.468-1.572 2.611-2.472 5.647-2.472 8.886 0 6.132 3.223 11.543 8.123 14.712-2.993-.092-5.809-.887-8.27-2.211l-.002.222c0 8.564 6.294 15.708 14.647 17.332-1.532.404-3.145.62-4.811.62-1.177 0-2.32-.111-3.436-.317 2.324 7.022 9.067 12.133 17.057 12.275-6.249 4.741-14.122 7.567-22.677 7.567-1.474 0-2.927-.084-4.356-.247 8.081 5.015 17.678 7.942 27.99 7.942 33.586 0 51.952-26.934 51.952-50.291 0-.766-.018-1.529-.053-2.287 3.568-2.492 6.664-5.605 9.112-9.149z" sketch:type="MSShapeGroup" fill="#55ACEE"/></svg>
</svg>